<?xml version="1.0" encoding="utf-8"?>
<!-- Generator: Adobe Illustrator 27.1.1, SVG Export Plug-In . SVG Version: 6.00 Build 0)  -->
<svg version="1.1" id="Ebene_1" xmlns="http://www.w3.org/2000/svg" xmlns:xlink="http://www.w3.org/1999/xlink" x="0px" y="0px"
	 width="3000px" height="3000px" viewBox="0 0 3000 3000" style="enable-background:new 0 0 3000 3000;" xml:space="preserve">
<style type="text/css">
	.st0{fill:#FAE800;}
	.st1{fill:#E20613;}
	.st2{fill:#17130E;}
	.st3{fill:#FFFFFF;}
	.st4{fill:#6EB42C;}
	.st5{fill:#3E4998;}
</style>
<path class="st0" d="M2770.7,1500.7c0-703.1-569.7-1273-1272.5-1273c-702.8,0-1272.5,569.9-1272.5,1273s569.7,1273,1272.5,1273
	C2201,2773.7,2770.7,2203.7,2770.7,1500.7"/>
<path class="st1" d="M1498.3,2774.2c-171.9,0-338.6-33.7-495.5-100.1c-151.6-64.1-287.7-156-404.6-272.9
	c-116.9-117-208.7-253.2-272.8-404.8c-66.4-157-100-323.8-100-495.7s33.7-338.7,100-495.7c64.1-151.7,155.9-287.8,272.8-404.8
	s253-208.8,404.6-272.9c156.9-66.4,323.7-100.1,495.5-100.1c171.9,0,338.6,33.7,495.5,100.1c151.6,64.1,287.7,156,404.6,272.9
	c116.9,117,208.7,253.2,272.8,404.8c66.4,157,100,323.8,100,495.7s-33.7,338.7-100,495.7c-64.1,151.7-155.9,287.8-272.8,404.8
	c-116.9,117-253.1,208.8-404.6,272.9C1836.8,2740.5,1670.1,2774.2,1498.3,2774.2z M1498.3,228.2C796.9,228.2,226.3,799,226.3,1500.7
	s570.6,1272.5,1271.9,1272.5c701.4,0,1271.9-570.8,1271.9-1272.5S2199.6,228.2,1498.3,228.2z"/>
<path class="st2" d="M1386.4,1108.6h-166.6c-2,0-3.8-0.9-5-2.5L960.6,757c-1.6-2.2-1.6-5.1,0-7.3l268.9-371.2c1.2-1.6,3-2.5,5-2.5
	h239.4c3.4,0,6.2,2.8,6.2,6.2s-2.8,6.2-6.2,6.2h-236.3L973.2,753.3l249.7,342.9h163.5c3.4,0,6.2,2.8,6.2,6.2
	C1392.5,1105.8,1389.8,1108.6,1386.4,1108.6z"/>
<path class="st2" d="M1503.4,2017.7c-1.2,0-2.5-0.4-3.6-1.1l-503.1-356.5c-2.3-1.6-3.2-4.7-2.2-7.3l219.4-552.7
	c0.9-2.3,3.2-3.9,5.7-3.9h567.4c2.5,0,4.8,1.5,5.7,3.9l219.4,552.7c1.1,2.6,0.2,5.7-2.2,7.3L1507,2016.6
	C1505.9,2017.3,1504.7,2017.7,1503.4,2017.7z M1007.9,1652.8l495.6,351.2l495.6-351.2l-216-544.2h-559L1007.9,1652.8z"/>
<path class="st2" d="M1055.2,2548.2c-1.4,0-2.8-0.5-3.9-1.4l-446.1-361.8c-1.4-1.2-2.3-2.9-2.3-4.8v-417.7c0-2.8,1.9-5.2,4.5-5.9
	l391.3-107.6c1.8-0.5,3.7-0.2,5.2,0.9l503.1,356.5c1.6,1.2,2.6,3,2.6,5v418.7c0,2.8-1.9,5.3-4.7,6L1056.7,2548
	C1056.2,2548.2,1055.7,2548.2,1055.2,2548.2z M615.3,2177.4l441.5,358l440.6-109.9v-410.7l-498.1-352.9l-383.9,105.6V2177.4z"/>
<path class="st2" d="M609.1,1768.8c-2,0-3.9-1-5.1-2.7l-240.5-347c-1.1-1.6-1.4-3.8-0.7-5.6l203.6-556.9c0.7-1.9,2.3-3.3,4.2-3.8
	L964,747.4c2.5-0.7,5.1,0.3,6.6,2.3l254.2,349.1c1.2,1.7,1.5,3.9,0.7,5.9l-219.4,552.6c-0.7,1.8-2.2,3.2-4.1,3.7l-391.3,107.6
	C610.2,1768.7,609.6,1768.8,609.1,1768.8z M375.5,1414.8l236.2,340.8l384.1-105.6l217-546.6L963.1,760.4L576.9,863.9L375.5,1414.8z"
	/>
<path class="st2" d="M1772.7,388.2h-538.1c-2.2,0-4.2-1.2-5.3-3.1l-64.1-111c-1-1.7-1.1-3.7-0.4-5.5c0.7-1.8,2.3-3.1,4.1-3.6
	c27.2-7.3,54.9-13.7,82.4-19.1c27.6-5.4,55.7-10,83.5-13.6c27.9-3.6,56.2-6.3,84.2-8.1c28-1.7,56.5-2.6,84.6-2.5
	c28,0.1,56.3,1.2,84.3,3.1c27.9,2,56.1,4.9,83.9,8.7c27.7,3.8,55.7,8.6,83.1,14.2c27.5,5.6,55.1,12.2,82,19.6
	c1.8,0.5,3.3,1.8,4.1,3.6c0.7,1.8,0.6,3.8-0.4,5.4L1778,385.1C1776.9,387,1774.9,388.2,1772.7,388.2z M1238.1,375.9h531l56.9-98.6
	c-24.3-6.5-49-12.3-73.5-17.3c-27.2-5.6-54.9-10.3-82.3-14c-27.5-3.8-55.5-6.6-83.1-8.6c-27.7-1.9-55.8-3-83.5-3.1
	c-27.9-0.1-56,0.7-83.8,2.4c-27.8,1.7-55.8,4.4-83.4,8c-27.6,3.6-55.4,8.1-82.7,13.5c-24.6,4.8-49.4,10.5-73.8,16.9L1238.1,375.9z"
	/>
<path class="st2" d="M571.9,865.3c-2.2,0-4.2-1.1-5.3-3.1L487,724.5c-1.3-2.2-1.1-4.9,0.5-6.9c42.4-54.7,89.6-106.4,140.3-153.5
	C678.5,517,733.4,473.7,791,435.4c57.6-38.3,118.9-72.1,182-100.6c63.1-28.4,129-51.9,195.9-69.8c2.7-0.7,5.5,0.5,6.9,2.9l64.1,111
	c1.2,2.1,1.1,4.7-0.3,6.7L970.5,756.9c-0.8,1.1-2,2-3.4,2.3L573.5,865.1C572.9,865.2,572.4,865.3,571.9,865.3z M499.8,721.9
	l75.1,130l386.9-104.1l265.4-366.2l-59.7-103.4c-64.7,17.5-128.4,40.3-189.4,67.9c-62.5,28.2-123.1,61.7-180.2,99.6
	c-57.1,37.9-111.5,80.8-161.7,127.5C587,618.9,541.1,669,499.8,721.9z"/>
<path class="st2" d="M225.8,1507c-1.1,0-2.1-0.3-3.1-0.8c-1.9-1.1-3.1-3.1-3.1-5.4c0-70.1,5.8-140.7,17.3-209.8
	c11.5-69.1,28.8-137.8,51.5-204.1c22.7-66.3,51-131.2,84.3-192.9C406,832.4,444.6,773,487.5,717.7c1.3-1.6,3.2-2.5,5.3-2.4
	c2,0.1,3.9,1.3,4.9,3.1l79.5,137.7c0.9,1.6,1.1,3.5,0.5,5.2l-203,556.8c-0.5,1.3-1.4,2.5-2.6,3.2l-143,84.9
	C228,1506.7,226.9,1507,225.8,1507z M491.6,732.5c-40.3,52.8-76.6,109.1-108.1,167.5c-32.9,61.1-61,125.3-83.5,191
	c-22.5,65.7-39.6,133.7-51,202.1c-10.8,64.9-16.5,131.1-17.1,196.9l131.8-78.2l201.3-552L491.6,732.5z"/>
<path class="st2" d="M443.4,2218.8c-2,0-4-1-5.1-2.7c-35.3-52.3-66.9-107.7-94.1-164.6c-27.2-56.9-50.3-116.4-68.7-176.7
	c-18.4-60.3-32.5-122.5-41.8-184.9c-9.3-62.4-14.1-126-14.1-189.1c0-2.2,1.1-4.2,3-5.3l143-84.9c2.8-1.7,6.4-0.9,8.2,1.8
	l240.4,346.3c0.7,1,1.1,2.3,1.1,3.5v418.6c0,3-2.1,5.5-5,6.1l-165.8,31.8C444.2,2218.8,443.8,2218.8,443.4,2218.8z M232,1504.4
	c0.2,61.3,4.8,123.1,13.9,183.7c9.2,61.8,23.2,123.4,41.4,183.1c18.3,59.7,41.2,118.6,68,175c26.3,55.1,56.9,108.8,90.9,159.6
	l156.8-30.1v-411.5l-236-340L232,1504.4z"/>
<path class="st2" d="M1114.1,2720.4c-0.6,0-1.3-0.1-1.9-0.3c-68-21.5-134.6-49-198-81.5c-63.4-32.6-124.5-70.7-181.6-113.4
	c-57.1-42.7-111-90.5-160.1-142.1c-49.2-51.6-94.3-107.8-134.2-166.9c-1.2-1.7-1.4-3.9-0.6-5.8c0.8-1.9,2.5-3.3,4.5-3.7l165.8-31.8
	c1.8-0.3,3.6,0.1,5,1.3l446,361.2c0.9,0.7,1.6,1.7,2,2.8l58.9,172.2c0.8,2.2,0.2,4.6-1.4,6.3
	C1117.3,2719.7,1115.7,2720.4,1114.1,2720.4z M453.8,2216.9c38.2,55.7,81.1,108.6,127.6,157.5c48.7,51.1,102.1,98.5,158.6,140.8
	c56.5,42.3,117,80.1,179.9,112.3c59.2,30.4,121.1,56.3,184.4,77l-54.3-158.8l-442.3-358.3L453.8,2216.9z"/>
<path class="st2" d="M1498.6,2779.8c-31.3,0-63-1.2-94.2-3.5c-32.9-2.4-66.1-6.2-98.7-11.2c-32.6-5-65.4-11.3-97.6-18.8
	c-32.1-7.5-64.4-16.4-95.8-26.3c-1.9-0.6-3.3-2-4-3.9l-58.9-172.2c-0.6-1.6-0.4-3.4,0.4-4.9c0.8-1.5,2.2-2.6,3.9-3l448.4-112.1
	c1-0.2,2-0.2,3,0l448.4,112.1c1.7,0.4,3.1,1.5,3.9,3c0.8,1.5,1,3.3,0.4,4.9l-57.7,168.5c-0.6,1.8-2.1,3.3-3.9,3.9
	c-31.5,10.3-63.8,19.5-96,27.3c-32.2,7.8-65.2,14.5-97.9,19.7c-32.7,5.3-66,9.3-99.1,12.1c-33.1,2.7-66.6,4.2-99.7,4.3
	C1502,2779.8,1500.3,2779.8,1498.6,2779.8z M1118.9,2709.3c30.2,9.5,61.1,17.9,91.9,25.1c31.8,7.4,64.3,13.7,96.6,18.6
	c32.3,4.9,65.2,8.7,97.8,11.1c32.6,2.4,65.7,3.6,98.3,3.4c32.8-0.1,66-1.6,98.8-4.2c32.7-2.7,65.8-6.7,98.1-11.9
	c32.4-5.2,65-11.8,96.9-19.6c30.9-7.5,61.9-16.3,92.2-26.1l54.5-159.2l-440.4-110.1l-440.4,110.1L1118.9,2709.3z"/>
<path class="st2" d="M1787.7,1108.2h-401.1c-3.4,0-6.2-2.8-6.2-6.2c0-3.4,2.8-6.2,6.2-6.2h398l249.6-342.6l-264.6-365h-295.8
	c-3.4,0-6.2-2.8-6.2-6.2s2.8-6.2,6.2-6.2h299c2,0,3.8,0.9,5,2.5l269.1,371.2c1.6,2.2,1.6,5.1,0,7.3l-254.1,348.8
	C1791.5,1107.3,1789.6,1108.2,1787.7,1108.2z"/>
<path class="st2" d="M1951.7,2548.2c-0.5,0-1-0.1-1.5-0.2L1502,2436.2c-2.7-0.7-4.7-3.2-4.7-6v-418.7c0-2,1-3.9,2.6-5L2003,1650
	c1.5-1.1,3.4-1.4,5.2-0.9l391.3,107.6c2.7,0.7,4.5,3.2,4.5,5.9v417.7c0,1.9-0.8,3.6-2.3,4.8l-446.1,361.8
	C1954.5,2547.7,1953.1,2548.2,1951.7,2548.2z M1509.6,2425.4l440.6,109.9l441.4-358v-410l-383.9-105.6l-498.1,352.9V2425.4z"/>
<path class="st2" d="M2397.8,1768.8c-0.5,0-1.1-0.1-1.6-0.2L2004.9,1661c-1.9-0.5-3.4-1.9-4.1-3.7l-219.4-552.6
	c-0.8-2-0.5-4.2,0.7-5.9l254.2-349.1c1.5-2.1,4.1-3,6.6-2.3l394.4,105.5c1.9,0.5,3.5,2,4.2,3.9l202.5,556.9c0.7,1.9,0.4,4-0.7,5.6
	l-240.5,347C2401.7,1767.9,2399.8,1768.8,2397.8,1768.8z M2011.1,1649.9l384.1,105.6l236.2-340.8l-200.3-550.8l-387.3-103.5
	l-249.7,342.9L2011.1,1649.9z"/>
<path class="st2" d="M2435.4,865.3c-0.5,0-1.1-0.1-1.6-0.2l-393.6-105.9c-1.4-0.4-2.6-1.2-3.4-2.3l-269.1-371.2
	c-1.4-2-1.6-4.6-0.3-6.7l62.7-108.6c1.4-2.4,4.3-3.6,7-2.9c66.8,18.3,132.5,42.3,195.5,71.2c62.9,28.9,123.9,63.2,181.4,101.9
	c57.4,38.7,112,82.4,162.4,130c50.4,47.5,97.2,99.5,139.2,154.6c1.5,2,1.7,4.7,0.4,6.8l-75.2,130.2
	C2439.6,864.2,2437.6,865.3,2435.4,865.3z M2045.5,747.9l386.9,104.1l70.8-122.6c-41-53.3-86.5-103.7-135.4-149.8
	c-49.9-47.1-104-90.4-160.9-128.7c-56.9-38.4-117.3-72.3-179.6-100.9c-60.9-28-124.4-51.2-189-69.2l-58.3,101L2045.5,747.9z"/>
<path class="st2" d="M2771.4,1501.1c-1.1,0-2.2-0.3-3.1-0.9l-132.9-78.9c-1.2-0.7-2.2-1.9-2.6-3.2l-203-556.8
	c-0.6-1.7-0.5-3.6,0.5-5.2l75.2-130.2c1-1.8,2.9-2.9,4.9-3.1c2.1-0.1,4.1,0.8,5.3,2.4c41.7,54.7,79.3,113.2,111.6,173.9
	c32.4,60.7,60,124.5,82.2,189.6c22.2,65.1,39.2,132.5,50.6,200.3c11.4,67.8,17.3,137.1,17.7,205.9c0,2.2-1.2,4.3-3.1,5.4
	C2773.5,1500.8,2772.5,1501.1,2771.4,1501.1z M2643.5,1411.8l121.6,72.2c-0.9-64.5-6.7-129.4-17.4-193
	c-11.3-67.2-28.1-133.9-50.1-198.4c-22-64.5-49.3-127.6-81.4-187.8c-30.6-57.4-65.9-112.8-105-164.8l-69.1,119.7L2643.5,1411.8z"/>
<path class="st2" d="M2554.9,2217.1c-0.4,0-0.8,0-1.2-0.1l-156.9-30.1c-2.9-0.6-5-3.1-5-6.1v-418.6c0-1.3,0.4-2.5,1.1-3.5
	l240.4-346.3c1.8-2.7,5.4-3.4,8.2-1.8l132.9,78.9c1.9,1.1,3,3.1,3,5.3c0.3,63.4-4.2,127.4-13.3,190.1c-9.1,62.7-23,125.3-41.4,186
	c-18.3,60.7-41.4,120.5-68.6,177.8c-27.1,57.3-58.8,113-94.2,165.6C2558.9,2216.1,2557,2217.1,2554.9,2217.1z M2404.2,2175.7
	l147.9,28.4c34.1-51.1,64.7-105.2,91-160.6c26.9-56.7,49.7-116,67.9-176.1c18.2-60.1,32-122.1,41-184.2
	c8.9-61,13.3-123.1,13.2-184.8l-125-74.2l-236,340V2175.7z"/>
<path class="st2" d="M1894.4,2716.7c-1.6,0-3.2-0.6-4.4-1.8c-1.6-1.7-2.2-4.1-1.4-6.3l57.7-168.5c0.4-1.1,1.1-2.1,2-2.8l446-361.2
	c1.4-1.1,3.3-1.6,5-1.3l156.9,30.1c2,0.4,3.7,1.8,4.5,3.7c0.8,1.9,0.6,4.1-0.6,5.8c-39.3,58.5-83.8,114.1-132.2,165.3
	c-48.4,51.2-101.5,98.7-157.7,141.2c-56.2,42.5-116.3,80.6-178.8,113.3c-62.4,32.7-128.1,60.3-195,82.2
	C1895.7,2716.6,1895.1,2716.7,1894.4,2716.7z M1957.3,2545.7l-53,155.1c62.2-21,123.2-47.1,181.4-77.5
	c61.9-32.3,121.4-70.1,177.1-112.2c55.7-42.1,108.2-89.2,156.1-139.9c45.8-48.4,88.1-100.9,125.7-156l-144.9-27.8L1957.3,2545.7z"/>
<path class="st2" d="M1383.9,1987.6c14.3-25.7,34-61.4,59-107.1c66-24.5,160.1-79.5,282.1-165.1c65.6-80.6,110.6-123.9,134.8-130.2
	c24.3-6.2,64.2,0.1,119.6,19c55.4,18.9,123,28.3,202.7,28.3c61.9,17.4,92.8,48.6,92.8,93.4l87.2-17.4l60.1-34.7
	c-21.5-45.9-38.8-77.6-52-95.2c-21.6-28.9-53.5-47-95.6-54.5c-42.1-7.5-112.2-18.4-210.2-32.8c-98-14.4-156.4-27.1-175.3-38
	c-18.9-10.9-32.8-16.4-41.7-16.4c-8.9,0-33.3,5.3-73.2,15.9c-39.9,10.6-64.1,23.2-72.6,38c-8.5,14.7-44.4,40.4-107.7,76.9
	c-63.3,36.6-109.7,59.4-139.2,68.5c-15.2,4.7-30,8.6-44.2,11.6c-0.6-57.7-23.7-111.8-69.3-162.2c-13.2-16.2-27.3-34-42.3-53.2
	c-55.9-71.5-61.2-167.9-16.1-289.1c28.5,17.5,48.8,27.2,60.8,29.1c23.3,3.7,48.5,1.3,75.6-7.3c27.1-8.6,52.5-12.4,76.4-11.4
	c23.8,1,51,4.7,81.5,11.2c30.5,6.5,56.4,18.2,77.5,35c21.2,16.8,36,22.8,44.5,17.9c8.5-4.9,12.8-11.1,12.8-18.7
	c0-7.5,7.6-11.3,22.7-11.3c15.2,0,24.4-1.7,27.7-5c3.3-3.3,3.4-13.4,0.1-30.4c7.7,2.3,14.1,2.4,19.3,0.5
	c11.5-4.3,19.6-13.2,24.3-26.5c4.7-13.4,10.8-21.7,18.2-25c7.4-3.3,13.5-11.6,18.3-24.9l-0.6-5.2c0.4,1.9,0.7,3.6,0.6,5.2
	c2.5-6.9,1.3-16.2-3.4-27.9c-4.5-11-12.1-24-22.9-39.2c-22.3-31.5-51.9-61.4-88.7-89.8c-36.8-28.4-76.2-56.4-118.3-84.1
	c-42.1-27.7-69.3-47.7-81.7-60c-12.4-12.4-29.7-33.1-51.9-62.2c-22.3-29.1-45.4-54.2-69.4-75.4c-11-9.7-24.9-18.4-41.6-26.2
	c7.3-16.6,11-64.6,11-143.9c-10.1,0-33.9,28.7-71.2,86c12.2-42,18.3-82.5,18.3-121.5c-54.4,39.5-88,89.4-100.7,149.9
	c-151-9.8-308.7,34-472.9,131.4c78.5-19.7,161.1-29.6,247.9-29.7c-188.5,33.6-344.5,127.8-468,282.6
	c143.5-92.8,254.6-144.1,333.3-153.9c-199.6,76.1-339.1,207.9-418.2,395.3c86.5-91.2,177-159.8,271.4-206
	c-185,143-279.7,282.4-284.1,418.2c51.9-89.4,116-162.9,192.3-220.7c-93.3,127.6-147.6,273.1-163.1,436.7
	c35.9-74.7,68-130.2,96.6-166.3c-25.2,135.6-35.1,251-29.8,346c0.2,4.2,0.5,8.4,0.8,12.5c7,97.4-45.2,185.4-156.6,264.2
	c29.7,56.5,63.6,110.7,101.4,162.1c37.8,51.4,79.4,99.9,124.5,145.1c45.1,45.2,93.5,86.9,144.8,124.8
	c51.3,37.9,105.4,71.9,161.9,101.7c141.3-84.9,248.2-182.9,320.6-294.3c66.6-0.2,123.3-10.5,170-30.8
	c47.1-20.6,108.8-64.3,185.1-131.2c76.2-66.9,124.7-105.7,145.4-116.3c67.3,0,104,12.7,110.2,38c0,144.9-2.4,227-7.2,246.3
	c-0.9,3.4-2.4,7.3-4.8,11.5l64.8,64.8l22.8,18.7c16.8-29.1,25.2-54.8,25.2-77.2c12.6-145.7,15.6-245.6,9.2-299.6
	c-6.4-54-16.2-87.5-29.3-100.6c-13.1-13.1-33.8-23.5-62.3-31.1c-28.4-7.7-63.4-6.3-104.9,4c-80.1,27.4-148,44.1-203.7,50.1
	c-55.6,6-109.2,9-160.7,9L1383.9,1987.6z"/>
<path class="st3" d="M1910.9,2432.9l-22.8-18.7l-64.8-64.8c-10.8,19.8-37.3,48.7-79.6,86.6l18.3,31.8l79.4,53.5l16.2-9.3
	L1910.9,2432.9"/>
<path class="st3" d="M1841.5,2527.4c-1.2,0-2.4-0.4-3.4-1.1l-79.4-53.5c-0.8-0.5-1.4-1.2-1.9-2l-18.3-31.8c-1.5-2.5-0.9-5.7,1.2-7.7
	c41.6-37.3,67.9-65.8,78.3-84.9c0.9-1.7,2.6-2.9,4.5-3.2c1.9-0.3,3.9,0.4,5.2,1.7l64.6,64.6l22.6,18.5c2.5,2,3,5.6,1.2,8.2l-53.2,79
	c-0.5,0.8-1.2,1.4-2,1.9l-16.2,9.3C1843.6,2527.2,1842.6,2527.4,1841.5,2527.4z M1766.7,2463.5l75.1,50.5l11.6-6.7l49.2-73.2
	l-18.4-15.1c-0.2-0.1-0.3-0.3-0.5-0.4l-59.2-59.2c-12.5,19.3-36.5,44.9-73,77.9L1766.7,2463.5z"/>
<path class="st3" d="M2422.3,1673.9l-60.1,34.7L2275,1726l20.6,99.1l23.7,13.7c8.7,0,54.4-12.5,136.9-37.4l12.6-21.8
	C2451.5,1738.5,2436,1703.3,2422.3,1673.9"/>
<path class="st3" d="M2319.2,1844.9c-1.1,0-2.1-0.3-3.1-0.8l-23.7-13.7c-1.5-0.9-2.6-2.4-3-4.1l-20.6-99.1c-0.3-1.6,0-3.3,0.9-4.7
	c0.9-1.4,2.3-2.3,3.9-2.6l86.2-17.2l59.2-34.2c1.5-0.9,3.3-1.1,4.9-0.5c1.6,0.5,3,1.7,3.7,3.3c13.8,29.4,29.4,65,46.6,105.9
	c0.7,1.8,0.6,3.8-0.3,5.5l-12.6,21.8c-0.8,1.4-2.1,2.4-3.6,2.8C2346.1,1841,2325.2,1844.9,2319.2,1844.9z M2301,1821.1l19.7,11.4
	c7.3-0.8,34.7-7.2,131.3-36.3l9.8-17c-15.4-36.8-29.7-69.2-42.3-96.5l-54.2,31.3c-0.6,0.3-1.2,0.6-1.9,0.7l-81.1,16.2L2301,1821.1z"
	/>
<path class="st3" d="M1364.6,617.9c-0.8,0-1.7-0.2-2.5-0.5c-3.1-1.4-4.5-5-3.2-8.1c4.6-10.4,10.1-41.8,10.4-131.4
	c-8,6.9-25.2,26.1-59.8,79.3c-1.9,2.9-5.7,3.7-8.5,1.8c-2.9-1.9-3.7-5.7-1.8-8.5c50.9-78.2,67.2-88.8,76.4-88.8
	c3.4,0,6.2,2.8,6.2,6.2c0,80.9-3.8,128.8-11.5,146.4C1369.3,616.5,1367,617.9,1364.6,617.9z"/>
<path class="st3" d="M371.5,2098.8c-1.9,0-3.8-0.9-5-2.6c-2-2.8-1.3-6.6,1.5-8.6c108.9-77.1,160.8-164.1,154-258.7
	c-6.5-91.4,1.7-203.6,24.3-333.9c-24.3,35.1-51.2,83.3-80.3,144c-1.3,2.7-4.3,4.1-7.2,3.3c-2.9-0.8-4.8-3.5-4.5-6.5
	c14.1-149,61-284.8,139.6-404.3c-61,52.6-113.8,117-157.3,191.9c-1.4,2.4-4.3,3.6-7,2.8c-2.7-0.8-4.6-3.3-4.5-6.1
	c4-123.5,82.7-251.2,233.9-380.3c-72.5,43.7-143.1,101.5-210.6,172.5c-2.1,2.2-5.4,2.5-7.9,0.9c-2.5-1.6-3.5-4.8-2.3-7.6
	c70.3-166.4,189.4-290.5,354.6-369.9c-69.7,23.4-157,69-260.7,136c-2.5,1.6-5.9,1.2-7.9-1c-2-2.2-2.1-5.6-0.2-8
	c109.5-137.2,246.2-228,407-270.5c-62.5,3.8-123,13-180.6,27.4c-3,0.8-6-0.8-7.2-3.6c-1.2-2.8-0.1-6.1,2.6-7.7
	c164.6-97.6,324.9-142.1,476.5-132.2c3.4,0.2,6,3.2,5.8,6.6c-0.2,3.4-3.1,6-6.6,5.8c-138.1-9-283.7,28-433.4,110
	c66.7-13.6,136.7-20.5,208.8-20.6c0,0,0,0,0,0c3.2,0,5.9,2.4,6.1,5.6c0.3,3.2-1.9,6.1-5.1,6.6c-173.5,31-321,115-439,250.1
	c127.8-79.6,229.5-124.5,302.5-133.6c3.1-0.4,6,1.6,6.7,4.6c0.8,3-0.9,6.1-3.8,7.3c-185.7,70.8-320.3,191.9-400.6,360.3
	c79.4-79.1,163-140.4,248.8-182.4c2.8-1.4,6.3-0.4,7.9,2.3c1.7,2.7,1,6.2-1.5,8.1c-170.9,132.1-264.9,262.5-279.7,387.9
	c49.7-79.8,110.4-147.1,180.4-200.1c2.4-1.8,5.9-1.6,8.1,0.5c2.2,2.1,2.5,5.6,0.7,8c-85.4,116.8-138.5,250.8-158,398.5
	c29.8-59.1,57.2-104.6,81.6-135.6c1.8-2.2,4.8-3,7.4-1.8c2.6,1.2,4,4,3.5,6.7c-26,140.5-35.8,260.5-28.9,356.9
	c7.1,99.2-46.5,189.9-159.2,269.7C374,2098.5,372.7,2098.8,371.5,2098.8z"/>
<path class="st3" d="M528.3,1876.1c-0.3,0-0.5,0-0.8-0.1c-3.4-0.4-5.8-3.5-5.3-6.9c34.3-269.1,147.8-476.5,337.4-617.1
	c-92.3,28.2-176.3,83.1-250.2,163.4c-2.1,2.3-5.6,2.7-8.1,0.9c-2.5-1.8-3.3-5.2-1.9-7.9c77.6-145.6,175.5-252.8,291.4-319.4
	c-75.8,13.9-143.4,38.8-201.4,74c-2.4,1.5-5.4,1.1-7.5-0.8c-2-1.9-2.5-5-1.2-7.4c47.4-87.6,147.1-164.2,296.4-227.9
	c-66.5,9.3-132.7,27.1-197.3,53c-2.7,1.1-5.9,0.1-7.5-2.4c-1.6-2.5-1.2-5.7,0.9-7.8c70.8-68.7,131.5-115.4,180.5-138.7
	c49.6-23.6,100.9-31.3,152.8-22.9c48.6,7.9,98.3,20.9,147.6,38.7c2.3,0.8,4.6,1.7,7,2.6c70.4,26.1,125.6,68.4,168.7,129.3
	c2,2.8,1.3,6.6-1.5,8.6c-2.8,2-6.6,1.3-8.6-1.5c-41.6-58.8-94.9-99.6-162.9-124.9c-2.3-0.8-4.6-1.7-6.9-2.5
	c-48.6-17.6-97.5-30.4-145.4-38.2c-49.3-8-98.2-0.6-145.5,21.9c-42.6,20.3-94.7,59-155,115.2c70.9-25.7,143.4-41.7,216-47.7
	c3.1-0.3,5.8,1.8,6.5,4.8c0.7,3-0.9,6-3.8,7.1c-157.3,61-264.5,134.6-319.4,219c64.1-35,138.5-58.4,221.7-69.6
	c3-0.4,5.8,1.4,6.7,4.3c0.9,2.9-0.5,6-3.2,7.3c-116.5,57.8-215.9,155.7-295.9,291.3c76.5-72.9,162.7-120.8,256.9-142.7
	c2.9-0.7,5.9,0.8,7,3.5c1.2,2.7,0.3,5.9-2.2,7.6c-203.5,138.6-324.6,350.1-360.2,628.5C534,1873.8,531.3,1876.1,528.3,1876.1z"/>
<path class="st3" d="M1149.5,664c-2.6,0-5.1-1.7-5.9-4.4c-1-3.3,0.8-6.7,4.1-7.7c27.4-8.3,48.3-14,62.3-16.7
	c1.4-86.5,38.1-156.4,109-207.9c1.9-1.4,4.4-1.6,6.4-0.5c2.1,1.1,3.4,3.2,3.4,5.5c0,65.4-17.2,135.8-51,209.4
	c-1.4,3.1-5.1,4.4-8.2,3c-3.1-1.4-4.5-5.1-3-8.2c30.9-67.2,47.6-131.6,49.7-191.6c-62.4,49.3-93.9,115-93.9,195.5
	c0,3-2.2,5.6-5.2,6.1c-13.3,2.2-35.4,8-65.9,17.3C1150.7,664,1150.1,664,1149.5,664z"/>
<path class="st3" d="M1540.2,916.3c-1.3,0-2.6-0.4-3.7-1.3c-44.2-33.5-85.3-54-122.2-60.9c-1-0.2-1.9-0.6-2.7-1.2
	c-81.5-64.5-138.2-104.2-168.5-118.1c-29.3-13.4-60.2-14.6-91.8-3.6c-32.4,11.2-75.2,41-127.3,88.7c-2.5,2.3-6.4,2.1-8.7-0.4
	c-2.3-2.5-2.1-6.4,0.4-8.7c53.4-48.8,97.6-79.4,131.6-91.2c34.7-12,68.7-10.7,101,4.1c31.6,14.4,87.1,53.2,169.9,118.7
	c38.4,7.6,80.8,28.7,125.9,62.9c2.7,2.1,3.3,5.9,1.2,8.6C1543.9,915.4,1542,916.3,1540.2,916.3z"/>
<path class="st4" d="M1415.4,848.1c-70.2-6-115.5-39.3-135.9-99.8C1354.4,765.6,1399.8,798.9,1415.4,848.1"/>
<path class="st3" d="M1415.4,854.2c-0.2,0-0.3,0-0.5,0c-72.5-6.2-120-41.2-141.3-104c-0.7-2.1-0.2-4.5,1.3-6.1
	c1.5-1.7,3.8-2.4,6-1.9c76.9,17.8,124.2,52.8,140.4,104c0.6,2,0.2,4.1-1.1,5.7C1419,853.4,1417.2,854.2,1415.4,854.2z M1289.3,757
	c20.2,49,58.5,76.5,116.9,83.9C1389.7,801.4,1350.5,773.2,1289.3,757z"/>
<path class="st3" d="M1773.9,1160.5c-12.4,0-28.2-6.7-47.8-20.3c-23.4-16.2-56.9-42-99.6-76.6c-2.6-2.1-3-6-0.9-8.7
	c2.1-2.6,6-3.1,8.7-0.9c42.4,34.4,75.7,60,98.8,76.1c26.8,18.6,40.1,19.6,46.6,17.1c9.8-3.7,16.5-11.1,20.7-22.8
	c5.4-15.2,12.4-24.5,21.5-28.6c5.8-2.6,10.8-9.8,15-21.4c1.2-3.2,4.7-4.9,7.9-3.7c3.2,1.2,4.9,4.7,3.7,7.9
	c-5.4,15.1-12.5,24.4-21.5,28.4c-5.8,2.6-10.8,9.8-14.9,21.5c-5.4,15.1-14.8,25.3-28,30.2
	C1780.9,1159.9,1777.5,1160.5,1773.9,1160.5z M1566,841.5c-1.3,0-2.5-0.4-3.6-1.2c-11.2-8-21.6-14.7-31.1-19.7
	c-22.8-12.1-46.1-26.7-69.1-43.3c-23.6-17.1-46-44.9-66.6-82.9c-1.6-3-0.5-6.7,2.5-8.4c3-1.6,6.7-0.5,8.4,2.5
	c19.7,36.3,40.9,62.8,63,78.8c22.6,16.3,45.4,30.6,67.7,42.4c10,5.3,21,12.2,32.6,20.6c2.8,2,3.4,5.8,1.4,8.6
	C1569.9,840.6,1568,841.5,1566,841.5z"/>
<path class="st3" d="M1833.8,1093.6c-27.8-3.4-46.7-3.6-56.6-0.5c-9.9,3.1-18,4.6-24.4,4.6c-6.4,0-8.1,2.5-5.2,7.6
	c2.9,5.1,9.3,8.7,19.2,10.8c9.9,2.2,23.9,3.2,42.3,3.2l5.5-9.5l6.5-6.5l5.5-3.2L1833.8,1093.6"/>
<path class="st3" d="M1809.1,1125.5c-18.7,0-33.3-1.1-43.6-3.4c-11.8-2.6-19.3-7.1-23.2-13.8c-2.6-4.5-2.9-8.4-1-11.7
	c2-3.4,5.9-5.2,11.5-5.2c5.7,0,13.3-1.5,22.6-4.3c10.8-3.4,30.2-3.3,59.2,0.3c2.4,0.3,4.4,2,5.1,4.3c0.7,2.3,0,4.8-1.7,6.4l-7.2,6.5
	c-0.3,0.3-0.7,0.6-1.1,0.8l-4.8,2.8l-5.4,5.4l-5.1,8.8C1813.3,1124.4,1811.3,1125.5,1809.1,1125.5z M1754.2,1103.8
	c2.5,2.7,7.3,4.8,13.9,6.3c8.8,1.9,21.3,3,37.4,3.1l3.7-6.4c0.3-0.5,0.6-0.9,1-1.3l6.5-6.5c0.3-0.3,0.7-0.6,1.1-0.9
	c-22.8-2-33.6-0.7-38.7,0.9C1769.2,1102.1,1761,1103.6,1754.2,1103.8z"/>
<path class="st3" d="M1692.4,1225.7c-10.4,0-23.9-6.8-41.6-20.9c-20.3-16.1-45.6-27.5-75-33.8c-30.1-6.4-57.1-10.2-80.5-11.1
	c-23-0.9-48,2.8-74.3,11.1c-27.9,8.8-54.3,11.3-78.4,7.5c-24.5-3.9-78.5-36.5-165-99.6c-2.8-2-3.4-5.9-1.3-8.6
	c2-2.7,5.9-3.4,8.6-1.3c83.7,61.1,137.4,93.9,159.7,97.4c22.2,3.6,46.7,1.2,72.8-7c27.7-8.7,54.1-12.7,78.5-11.7
	c24,1,51.8,4.8,82.6,11.4c31.3,6.7,58.3,18.9,80.1,36.2c25.7,20.4,34.9,18.9,37.6,17.3c8.7-5,9.7-10,9.7-13.3c0-8,5-17.5,28.9-17.5
	c20,0,23.2-3,23.3-3.2c0,0,2.4-4-1.6-24.8c-0.6-3.3,1.6-6.6,4.9-7.2c3.3-0.6,6.6,1.6,7.2,4.9c3.8,20,3.3,30.8-1.8,35.9
	c-4.7,4.7-14.6,6.8-32.1,6.8c-3.9,0-16.6,0.4-16.6,5.1c0,6.8-2.8,16.5-15.9,24C1699.4,1224.9,1696.1,1225.7,1692.4,1225.7z"/>
<path class="st3" d="M1459.9,1158.5c-3.4,0-6.2-2.8-6.2-6.2c0-80.8,41.8-139.1,124.5-173.2c3.2-1.3,6.8,0.2,8.1,3.4
	c1.3,3.1-0.2,6.8-3.4,8.1c-78.7,32.4-116.9,85.3-116.9,161.7C1466,1155.7,1463.3,1158.5,1459.9,1158.5
	C1459.9,1158.5,1459.9,1158.5,1459.9,1158.5z"/>
<path class="st3" d="M1842.7,1082.7C1842.7,1082.7,1842.6,1082.7,1842.7,1082.7c-3.4,0-6.2-2.8-6.2-6.2c0-6.8-5.5-21.1-32.3-51.1
	c-22.1-24.7-51.8-48-88.3-69.1c-37.5-21.6-72.6-47.2-104.4-75.8c-31.1-28-58.1-48.2-80.2-59.9c-22.8-12.1-46.1-26.7-69.1-43.3
	c-23.6-17.1-46-44.9-66.6-82.9c-19.6-36-55.8-67.5-107.8-93.7c-3-1.5-4.3-5.2-2.7-8.3c1.5-3,5.2-4.3,8.3-2.7
	c54.2,27.3,92.3,60.6,113,98.8c19.7,36.3,40.9,62.8,63,78.8c22.6,16.3,45.4,30.6,67.7,42.4c23,12.2,50.8,32.9,82.7,61.6
	c31.1,28.1,65.5,53.1,102.3,74.3c37.7,21.8,68.4,45.8,91.4,71.5c24.2,27.1,35.5,46,35.4,59.3
	C1848.8,1079.9,1846.1,1082.7,1842.7,1082.7z"/>
<path class="st3" d="M1408.9,1651.3c-3.4,0-6.1-2.7-6.2-6.1c-0.3-49.6-23.3-103.6-61.4-144.3c-33.2-35.5-45-58.3-62.7-92.7l-0.6-1.2
	c-18.6-36.1-28.4-78.1-29.1-124.9c-0.8-46.7,8.7-94.2,28.2-141.1c1.3-3.2,4.9-4.6,8.1-3.3c3.1,1.3,4.6,4.9,3.3,8.1
	c-18.8,45.4-28,91.3-27.3,136.2c0.7,44.9,10.1,85,27.8,119.4l0.6,1.2c17.9,34.7,28.7,55.7,60.7,89.9c40.2,42.9,64.4,100,64.7,152.6
	C1415.1,1648.5,1412.3,1651.3,1408.9,1651.3C1408.9,1651.3,1408.9,1651.3,1408.9,1651.3z"/>
<path class="st3" d="M904.1,2632.5c-2.1,0-4.1-1.1-5.3-3c-1.8-2.9-0.8-6.7,2.1-8.5c185.3-111.3,277-203.4,338.1-339.9c0,0,0,0,0-0.1
	c1.5-3.3,3.9-8.6,9.5-6.2c5.7,2.5,3.4,7.9,1.9,11.4c-0.5,1.2-1.2,2.8-2.1,4.1c-62.3,136.8-155.3,229.6-341.1,341.2
	C906.3,2632.2,905.2,2632.5,904.1,2632.5z"/>
<path class="st3" d="M1841.5,2527.4c-1.2,0-2.4-0.4-3.4-1.1l-79.4-53.5c-0.8-0.5-1.4-1.2-1.9-2l-18.3-31.8c-1.5-2.5-0.9-5.7,1.2-7.7
	c62.6-56.1,79.4-82.6,82.5-95c4.7-18.7,7-100.8,7-244c-5.9-21.2-41.3-32.4-102.5-32.6c-20.9,11.3-68.9,49.9-142.8,114.8
	c-76.4,67.1-139.2,111.5-186.7,132.3c-47.7,20.8-106.3,31.3-174.2,31.3c-3.4,0-6.2-2.8-6.2-6.2s2.8-6.2,6.2-6.2
	c66.2,0,123.2-10.2,169.3-30.3c46.3-20.2,108-64,183.5-130.2c77.3-67.9,125.3-106.2,146.6-117.2c0.9-0.4,1.8-0.7,2.8-0.7
	c71.2,0,109.2,14,116.2,42.7c0.1,0.5,0.2,1,0.2,1.5c0,146.8-2.4,227.8-7.4,247.8c-5.1,20.2-32,52.3-82.5,97.8l15.1,26.2l75.1,50.5
	l11.6-6.7l52.4-77.8c15.9-27.6,24.1-52.6,24.1-73.8c0-0.2,0-0.4,0-0.5c12.5-144.7,15.5-245,9.2-298.3c-7.8-65.2-19.3-88.7-27.5-96.9
	c-12.2-12.3-32.3-22.2-59.5-29.6c-27.2-7.4-61.4-6-101.6,4c-80.1,27.4-149,44.3-204.7,50.4c-55.6,6-109.9,9.1-161.4,9.1
	c-3.4,0-6.2-2.8-6.2-6.2c0-3.4,2.8-6.2,6.2-6.2c51,0,104.8-3,160-9c54.9-5.9,123-22.7,202.3-49.8c0.2-0.1,0.3-0.1,0.5-0.2
	c42.4-10.6,78.7-11.9,108.1-4c29.4,7.9,51.2,18.9,65,32.7c14.2,14.2,24.4,48.3,31,104.2c6.4,54.1,3.4,155.2-9.1,300.6
	c-0.1,23.4-8.8,50.3-26,80l-53.4,79.4c-0.5,0.8-1.2,1.4-2,1.9l-16.2,9.3C1843.6,2527.2,1842.6,2527.4,1841.5,2527.4z"/>
<path class="st3" d="M1021.7,2134.4c-17.3,0-35.6-0.3-54.9-1.1c-3.4-0.1-6.1-3-5.9-6.4c0.1-3.4,3.1-5.9,6.4-5.9
	c198,7.7,282.1-27.4,303.2-38.3c53.4-27.8,91.2-70.3,107.3-98.2l2.9-5c13.9-24,21.5-37.2,56.8-101.9c0.7-1.3,1.9-2.3,3.3-2.8
	c65.1-24.2,159.3-79.3,280-163.8c66.8-81.9,111.8-125,137.6-131.6c25.7-6.6,66-0.3,123.1,19.1c54.5,18.6,122.1,28,200.7,28
	c0.6,0,1.1,0.1,1.7,0.2c64.3,18.1,97,51.3,97.3,98.7l19.9,95.8l19.7,11.4c7.3-0.8,34.7-7.2,131.3-36.3l9.8-17
	c-43-102.5-75.5-168.7-96.5-196.7c-20.5-27.4-51.4-45-91.7-52.1c-41.9-7.4-112.6-18.5-210-32.8c-99.7-14.7-157.8-27.3-177.5-38.8
	c-22.2-12.8-33.3-15.5-38.6-15.5c-5.7,0-22.8,2.7-71.6,15.7c-47.4,12.6-63.6,26-68.8,35.1c-9.1,15.8-45.1,41.7-110,79.2
	c-63.4,36.6-110.7,59.9-140.5,69.1c-29.8,9.2-58,15.3-84,18c-27.2,2.8-59.1-9.8-94.6-37.7c-34.9-27.5-69.2-76.9-101.7-146.8
	c-31.8-68.2-82.7-131.3-151.4-187.4c-2.6-2.2-3-6-0.9-8.7c2.2-2.6,6-3,8.7-0.9c70.2,57.4,122.2,121.9,154.8,191.8
	c31.7,68.2,64.8,116,98.2,142.3c32.9,25.8,61.7,37.7,85.7,35.1c25.2-2.6,52.7-8.5,81.7-17.5c28.9-9,75.3-31.8,137.9-68
	c77.3-44.6,100-65.2,105.5-74.7c9.4-16.4,34.4-29.7,76.3-40.8c40.8-10.8,65.2-16.1,74.8-16.1c10.1,0,24.8,5.6,44.8,17.2
	c18.1,10.5,76.4,23,173.1,37.2c97.6,14.4,168.4,25.4,210.4,32.9c43.5,7.7,77,26.9,99.5,56.9c22.1,29.5,54.5,95.7,99.2,202.2
	c0.7,1.8,0.6,3.8-0.3,5.5l-12.6,21.8c-0.8,1.4-2.1,2.4-3.6,2.8c-111.8,33.7-132.7,37.6-138.7,37.6c-1.1,0-2.1-0.3-3.1-0.8
	l-23.7-13.7c-1.5-0.9-2.6-2.4-3-4.1l-20.6-99.1c-0.1-0.4-0.1-0.8-0.1-1.3c0-41.9-28.6-70.5-87.5-87.3
	c-79.7-0.1-148.3-9.7-203.9-28.7c-54-18.4-93.1-24.8-116.1-18.9c-15.7,4-51.3,29.5-131.6,128.1c-0.4,0.4-0.8,0.8-1.2,1.2
	c-120.6,84.5-215.3,140-281.4,165c-34.4,63-42,76.3-55.8,100.1l-2.9,5c-17,29.4-56.6,73.9-112.3,103
	C1256.5,2103.8,1183.9,2134.4,1021.7,2134.4z"/>
<path class="st3" d="M575.6,2383.7c-2,0-4-1-5.2-2.8c-1.9-2.9-1-6.7,1.8-8.5c98.7-64.2,195.9-102.8,288.7-114.9
	c3.4-0.4,6.5,1.9,6.9,5.3c0.4,3.4-1.9,6.5-5.3,6.9c-91,11.8-186.4,49.9-283.6,113C578,2383.3,576.8,2383.7,575.6,2383.7z"/>
<path class="st2" d="M1498.3,2779.8c-341.5,0-662.6-133.1-904.1-374.7c-241.5-241.6-374.5-562.8-374.5-904.5
	c0-341.7,133-662.9,374.5-904.5c241.5-241.6,562.6-374.7,904.1-374.7c341.5,0,662.6,133.1,904.1,374.7
	c241.5,241.6,374.5,562.8,374.5,904.5c0,341.7-133,662.9-374.5,904.5C2160.9,2646.8,1839.8,2779.8,1498.3,2779.8z M1498.3,233.9
	C800,233.9,232,802.2,232,1500.7c0,698.5,568.1,1266.8,1266.3,1266.8c698.2,0,1266.3-568.3,1266.3-1266.8
	C2764.6,802.2,2196.5,233.9,1498.3,233.9z"/>
<path class="st3" d="M1731.5,1136.5l-30.1-21.8l-71-55.9c-7.6-4.8-13.7-6-18.4-3.6c-4.7,2.4-3.3,7.3,4,14.7
	c7.4,7.4,21.6,16.1,42.7,26c21.1,10,50.1,26.4,87.2,49.4L1731.5,1136.5"/>
<path class="st3" d="M1746,1151.5c-1.1,0-2.2-0.3-3.2-0.9l-14-8.6c-30.2-18.4-54.5-32-72.6-40.5c-21.9-10.4-36.5-19.3-44.4-27.2
	c-4.1-4.1-9.5-10.3-8.5-16.8c0.5-3.3,2.6-6.1,6-7.8c6.8-3.5,15-2.1,24.5,3.9c0.2,0.1,0.3,0.2,0.5,0.4l71,55.9l30,21.7
	c4.6,2.8,9.2,5.6,14,8.6c2.9,1.8,3.8,5.6,2,8.5C1750.1,1150.5,1748,1151.5,1746,1151.5z M1616,1060.3c0.6,1,1.9,2.7,4.4,5.2
	c6.6,6.6,19.6,14.6,38.7,23.7l-32.3-25.4C1624,1062.1,1619.3,1059.7,1616,1060.3z"/>
<path class="st5" d="M1559.9,831.8c-10.6-6-27.2-15.5-49.9-28.7c-22.7-13.2-42.7-27.9-60-44.1c-17.3-16.2-33.6-38.7-48.9-67.5
	c-20.3-37.3-57.1-69.4-110.4-96.3l2.5-6.7c51.5,11.8,89.2,28.3,113.2,49.5c24,21.2,47.1,46.3,69.4,75.4
	c22.3,29.1,39.6,49.8,51.9,62.2c12.4,12.4,39.6,32.4,81.7,60c42.1,27.7,81.6,55.7,118.3,84.1c36.8,28.4,66.4,58.3,88.7,89.8
	c22.3,31.5,31.1,53.9,26.3,67.1c0-11.5-11.2-29.9-33.9-55.2c-22.6-25.3-52.6-48.8-89.9-70.3c-37.3-21.5-71.7-46.5-103.3-75.1
	C1591.9,855.2,1573.3,840.5,1559.9,831.8"/>
<path class="st3" d="M1842.7,1082.7c-0.4,0-0.7,0-1.1-0.1c-3-0.5-5.1-3.1-5.1-6.1c0-6.8-5.5-21.1-32.3-51.1
	c-22.1-24.7-51.8-48-88.3-69.1c-37.5-21.6-72.6-47.2-104.4-75.8c-23.2-20.2-41.7-34.9-54.8-43.4c-10.8-6.1-27.5-15.7-49.8-28.7
	c-23-13.4-43.6-28.5-61.1-45c-17.7-16.6-34.5-39.9-50.1-69.1c-19.5-36-55.8-67.5-107.7-93.7c-2.8-1.4-4.1-4.7-3-7.6l2.5-6.7
	c1.1-2.9,4.1-4.6,7.2-3.9c52.2,12,91.2,29.1,115.9,50.8c24.2,21.3,47.8,47,70.2,76.2c22,28.7,39.3,49.4,51.4,61.5
	c12,12,39.2,32,80.7,59.3c42,27.6,82,56,118.7,84.4c37.1,28.6,67.4,59.3,89.9,91.1c23.8,33.5,32.7,57.4,27.1,72.8
	C1847.6,1081.1,1845.2,1082.7,1842.7,1082.7z M1311.8,599.5c44.5,25.3,76.3,55.2,94.7,89c15,28.1,31,50.3,47.7,66
	c16.9,15.8,36.7,30.4,58.9,43.3c22.4,13,39.1,22.6,49.9,28.7c0.1,0.1,0.2,0.1,0.3,0.2c13.6,8.8,32.6,23.9,56.4,44.6
	c31.2,28.2,65.6,53.1,102.4,74.4c37.7,21.8,68.4,45.8,91.4,71.5c1.3,1.5,2.6,2.9,3.8,4.3c-1.8-2.7-3.8-5.6-5.9-8.6
	c-21.9-30.8-51.3-60.6-87.4-88.5c-36.5-28.2-76.2-56.4-118-83.8c-42.9-28.1-69.9-48-82.7-60.8c-12.5-12.5-30.2-33.6-52.5-62.8
	c-21.9-28.6-45-53.7-68.6-74.5C1382.3,625,1351.9,610.5,1311.8,599.5z"/>
</svg>
